<?xml version="1.0" standalone="no"?>
<!DOCTYPE svg PUBLIC "-//W3C//DTD SVG 20010904//EN"
 "http://www.w3.org/TR/2001/REC-SVG-20010904/DTD/svg10.dtd">
<svg version="1.0" xmlns="http://www.w3.org/2000/svg"
 width="374.000000pt" height="374.000000pt" viewBox="0 0 374.000000 374.000000"
 preserveAspectRatio="xMidYMid meet">
<metadata>
Created by potrace 1.14, written by Peter Selinger 2001-2017
</metadata>
<g transform="translate(0.000000,374.000000) scale(0.100000,-0.100000)"
fill="#000000" stroke="none">
<path d="M2020 3674 c-228 -28 -467 -117 -661 -245 -107 -72 -300 -258 -371
-359 -118 -168 -197 -347 -246 -555 -23 -98 -26 -131 -26 -300 -1 -209 11
-294 65 -463 56 -172 124 -302 236 -450 l65 -85 -55 -55 -55 -55 -78 -1 c-71
-1 -83 -4 -124 -33 -78 -54 -668 -656 -686 -699 -33 -80 -13 -185 48 -241 56
-53 151 -67 223 -34 26 12 157 136 382 362 374 377 373 376 359 479 -6 43 -5
45 51 102 l56 57 46 -38 c186 -155 462 -279 706 -317 159 -24 419 -15 567 20
283 66 539 213 737 422 156 165 262 342 331 554 101 309 101 626 -1 935 -163
493 -582 865 -1097 976 -94 20 -381 34 -472 23z m375 -260 c329 -57 627 -250
812 -527 301 -450 273 -1040 -70 -1463 -228 -281 -572 -444 -938 -445 -476 -1
-892 251 -1104 667 -190 371 -177 828 33 1179 189 317 491 526 852 590 105 18
307 18 415 -1z"/>
<path d="M2100 3232 c335 -156 517 -281 719 -498 157 -168 303 -396 388 -609
l24 -60 -5 115 c-19 456 -332 859 -791 1017 -85 29 -228 53 -310 52 l-60 0 35
-17z"/>
</g>
</svg>
