<?xml version="1.0" encoding="UTF-8" standalone="no"?>
<!-- Generator: Adobe Illustrator 19.0.0, SVG Export Plug-In . SVG Version: 6.00 Build 0)  -->

<svg
   version="1.1"
   id="Layer_1"
   x="0px"
   y="0px"
   viewBox="0 0 606.59149 141.39213"
   xml:space="preserve"
   width="160.494mm"
   height="37.41mm"
   xmlns="http://www.w3.org/2000/svg"
   xmlns:svg="http://www.w3.org/2000/svg"><defs
   id="defs147" />
<style
   type="text/css"
   id="style124">
	.st0{fill:#FFFFFF;}
</style>

<rect
   x="229.3"
   y="28.184837"
   width="20"
   height="83.300003"
   id="rect128"
   style="fill:#ffffff" />
<polygon
   points="409.5,328.3 409.5,270.4 456.9,328.3 479.1,328.3 479.1,278.1 459.1,278.1 459.1,302.9 411.6,245 389.5,245 389.5,328.3 "
   id="polygon130"
   transform="translate(-126.8,-216.81534)"
   style="fill:#ffffff" />
<polygon
   points="603,278.1 528.7,278.1 528.7,328.3 606.1,328.3 606.1,311.3 548.7,311.3 548.7,295.1 603,295.1 "
   id="polygon132"
   transform="translate(-126.8,-216.81534)"
   style="fill:#ffffff" />
<polygon
   points="493.8,262.1 493.8,328.3 513.8,328.3 513.8,262.1 548.6,262.1 606.1,262.1 606.1,245 531,245 459,245 459,262.1 "
   id="polygon134"
   transform="translate(-126.8,-216.81534)"
   style="fill:#ffffff" />
<path
   d="m 566.5,83.784812 c 16.3,-3.4 16.6,-21.3 15.8,-34.6 0.3,-11.3 -9.7,-21.3 -21,-21 h -68.6 v 83.299848 h 20 V 84.584812 h 31.7 l 18.2,26.899848 h 22.6 z m -4.2,-24.3 c 0.1,4 -3.3,7.4 -7.3,7.3 h -42.3 v -20.8 H 555 c 7.3,-0.2 7.7,8.1 7.3,13.5 z"
   id="path136"
   style="fill:#ffffff" />
<path
   d="m 210.1,27.584812 h -79 c -3.3,0 -6,2.7 -6,6.1 v 25.6 c 0,2.9 1.8,5.4 4.5,6.4 l 66.6,23.3 v 4.8 H 145 v -10 h -19.9 v 22.399848 c 0,3.3 2.7,6 6,6 h 79 c 3.3,0 6,-2.7 6,-6 V 80.884812 c 0,-2.9 -1.8,-5.4 -4.5,-6.4 l -66.6,-23.3 v -5.2 h 51.2 v 10 h 20 v -22.4 c 0,-3.3 -2.7,-6 -6.1,-6 z"
   id="path138"
   style="fill:#ffffff" />
<path
   d="M 98.3,27.592624 H 32.1 c -5.9,0 -10.7,4.8 -10.7,10.6 v 62.999856 l -17.5,17.4 c -5.2,5.2 -5.2,13.7 0,18.9 5.2,5.2 13.7,5.2 18.9,0 l 25.4,-25.2 h 50 c 5.9,0 10.7,-4.8 10.7,-10.7 V 38.192624 c 0.1,-5.8 -4.7,-10.6 -10.6,-10.6 z M 64.9,105.29248 c -6.5,0 -12.6,-1.8 -17.8,-4.8 l -2.5,2.4 -15.2,15.3 -13.2,13.1 c -1.6,1.6 -4.1,1.6 -5.7,0 -1.6,-1.6 -1.6,-4.1 0,-5.7 l 12.4,-12.4 16,-16.099856 1.6,-1.6 c -6.7,-6.4 -10.9,-15.5 -10.9,-25.5 0,-19.5 15.8,-35.3 35.3,-35.3 19.5,0 35.3,15.8 35.3,35.3 0.1,19.5 -15.7,35.299856 -35.3,35.299856 z"
   id="path140"
   style="fill:#ffffff" />
<path
   class="st0"
   d="m 58.754142,63.754382 c 2.434361,0 4.758069,0.663915 6.749819,1.770444 -1.549139,0.774569 -2.545013,2.213055 -2.545013,4.094153 0,2.434361 1.99175,4.536764 4.536763,4.536764 1.659792,0 2.987626,-0.885222 3.762195,-2.102403 0.77457,1.659792 1.106527,3.540889 1.106527,5.421986 0,0.995874 -0.110653,1.881096 -0.331957,2.876972 4.868722,-2.213055 8.852222,-6.085904 11.17593,-10.954626 -3.872847,-7.745693 -11.839847,-13.167681 -21.134681,-13.167681 -9.294833,0 -17.261833,5.311335 -21.13468,13.167681 1.106528,2.213057 2.434361,4.204806 4.204805,5.864599 1.217181,-6.528516 6.860473,-11.507889 13.610292,-11.507889 z"
   id="path20"
   style="fill:#ffffff;stroke-width:1.27654" />
<circle
   style="fill:none;stroke:#ffffff;stroke-width:1.9011;stroke-dasharray:none;stroke-opacity:1"
   id="path284"
   cx="62.627743"
   cy="67.568489"
   r="32.839176" /></svg>
