<?xml version="1.0" encoding="UTF-8" standalone="no"?>
<!-- Generator: Adobe Illustrator 19.0.0, SVG Export Plug-In . SVG Version: 6.00 Build 0)  -->

<svg
   version="1.1"
   id="Layer_1"
   x="0px"
   y="0px"
   viewBox="0 0 606.59149 141.39213"
   xml:space="preserve"
   width="160.494mm"
   height="37.41mm"
   xmlns="http://www.w3.org/2000/svg"
   xmlns:svg="http://www.w3.org/2000/svg"><defs
   id="defs147" />
<style
   type="text/css"
   id="style124">
	.st0{fill:#FFFFFF;}
</style>

<rect
   x="229.3"
   y="28.184837"
   width="20"
   height="83.300003"
   id="rect128" />
<polygon
   points="409.5,328.3 409.5,270.4 456.9,328.3 479.1,328.3 479.1,278.1 459.1,278.1 459.1,302.9 411.6,245 389.5,245 389.5,328.3 "
   id="polygon130"
   transform="translate(-126.8,-216.81534)" />
<polygon
   points="603,278.1 528.7,278.1 528.7,328.3 606.1,328.3 606.1,311.3 548.7,311.3 548.7,295.1 603,295.1 "
   id="polygon132"
   transform="translate(-126.8,-216.81534)" />
<polygon
   points="493.8,262.1 493.8,328.3 513.8,328.3 513.8,262.1 548.6,262.1 606.1,262.1 606.1,245 531,245 459,245 459,262.1 "
   id="polygon134"
   transform="translate(-126.8,-216.81534)" />
<path
   d="m 566.5,83.784812 c 16.3,-3.4 16.6,-21.3 15.8,-34.6 0.3,-11.3 -9.7,-21.3 -21,-21 h -68.6 v 83.299848 h 20 V 84.584812 h 31.7 l 18.2,26.899848 h 22.6 z m -4.2,-24.3 c 0.1,4 -3.3,7.4 -7.3,7.3 h -42.3 v -20.8 H 555 c 7.3,-0.2 7.7,8.1 7.3,13.5 z"
   id="path136" />
<path
   d="m 210.1,27.584812 h -79 c -3.3,0 -6,2.7 -6,6.1 v 25.6 c 0,2.9 1.8,5.4 4.5,6.4 l 66.6,23.3 v 4.8 H 145 v -10 h -19.9 v 22.399848 c 0,3.3 2.7,6 6,6 h 79 c 3.3,0 6,-2.7 6,-6 V 80.884812 c 0,-2.9 -1.8,-5.4 -4.5,-6.4 l -66.6,-23.3 v -5.2 h 51.2 v 10 h 20 v -22.4 c 0,-3.3 -2.7,-6 -6.1,-6 z"
   id="path138" />
<path
   d="M 98.3,27.592624 H 32.1 c -5.9,0 -10.7,4.8 -10.7,10.6 v 62.999856 l -17.5,17.4 c -5.2,5.2 -5.2,13.7 0,18.9 5.2,5.2 13.7,5.2 18.9,0 l 25.4,-25.2 h 50 c 5.9,0 10.7,-4.8 10.7,-10.7 V 38.192624 c 0.1,-5.8 -4.7,-10.6 -10.6,-10.6 z M 64.9,105.29248 c -6.5,0 -12.6,-1.8 -17.8,-4.8 l -2.5,2.4 -15.2,15.3 -13.2,13.1 c -1.6,1.6 -4.1,1.6 -5.7,0 -1.6,-1.6 -1.6,-4.1 0,-5.7 l 12.4,-12.4 16,-16.099856 1.6,-1.6 c -6.7,-6.4 -10.9,-15.5 -10.9,-25.5 0,-19.5 15.8,-35.3 35.3,-35.3 19.5,0 35.3,15.8 35.3,35.3 0.1,19.5 -15.7,35.299856 -35.3,35.299856 z"
   id="path140" />
<path
   d="m 64.9,41.084812 c -15.9,0 -28.8,12.9 -28.8,28.8 0,15.9 12.9,28.8 28.8,28.8 15.9,0 28.8,-12.9 28.8,-28.8 0.1,-15.9 -12.8,-28.8 -28.8,-28.8 z m 10.1,40.5 c 0.2,-0.9 0.3,-1.9 0.3,-2.9 0,-1.9 -0.4,-3.8 -1.1,-5.4 -0.8,1.3 -2.2,2.1 -3.8,2.1 -2.5,0 -4.5,-2 -4.5,-4.5 0,-1.8 1,-3.4 2.6,-4.1 -2,-1.1 -4.3,-1.8 -6.8,-1.8 -6.8,0 -12.5,5 -13.5,11.5 -1.7,-1.7 -3.1,-3.7 -4.2,-5.9 3.9,-7.8 11.9,-13.2 21.2,-13.2 9.3,0 17.4,5.4 21.2,13.2 -2.5,4.9 -6.5,8.8 -11.4,11 z"
   id="path142" />
</svg>
